solid OpenSCAD_Model
  facet normal 0 0 -1
    outer loop
      vertex -51.45 10 0
      vertex -51.1998 12.3806 0
      vertex -51.1998 7.61941 0
    endloop
  endfacet
  facet normal 0 0 -1
    outer loop
      vertex -51.1998 7.61941 0
      vertex -51.1998 12.3806 0
      vertex -50.4601 14.6571 0
    endloop
  endfacet
  facet normal 0 0 -1
    outer loop
      vertex -51.1998 7.61941 0
      vertex -50.4601 14.6571 0
      vertex -49.2632 16.7301 0
    endloop
  endfacet
  facet normal 0 0 -1
    outer loop
      vertex -51.1998 7.61941 0
      vertex -49.2632 16.7301 0
      vertex -47.6615 18.509 0
    endloop
  endfacet
  facet normal 0 0 -1
    outer loop
      vertex -51.1998 7.61941 0
      vertex -47.6615 18.509 0
      vertex -45.725 19.916 0
    endloop
  endfacet
  facet normal 0 0 -1
    outer loop
      vertex -51.1998 7.61941 0
      vertex -45.725 19.916 0
      vertex -43.5382 20.8896 0
    endloop
  endfacet
  facet normal 0 0 -1
    outer loop
      vertex -45.9881 15.305 0
      vertex -43.5382 20.8896 0
      vertex -41.1969 21.3873 0
    endloop
  endfacet
  facet normal 0 0 -1
    outer loop
      vertex -42.8368 17.4801 0
      vertex -41.1969 21.3873 0
      vertex -38.8031 21.3873 0
    endloop
  endfacet
  facet normal 0 0 -1
    outer loop
      vertex -40.9643 17.9417 0
      vertex -38.8031 21.3873 0
      vertex -36.4618 20.8896 0
    endloop
  endfacet
  facet normal 0 0 -1
    outer loop
      vertex -39.0357 17.9417 0
      vertex -36.4618 20.8896 0
      vertex -34.275 19.916 0
    endloop
  endfacet
  facet normal 0 0 -1
    outer loop
      vertex -37.1632 17.4801 0
      vertex -34.275 19.916 0
      vertex -32.3385 18.509 0
    endloop
  endfacet
  facet normal 0 0 -1
    outer loop
      vertex -34.0119 15.305 0
      vertex -32.3385 18.509 0
      vertex -30.7368 16.7301 0
    endloop
  endfacet
  facet normal 0 0 -1
    outer loop
      vertex -32.9164 13.7178 0
      vertex -30.7368 16.7301 0
      vertex -29.5399 14.6571 0
    endloop
  endfacet
  facet normal 0 0 -1
    outer loop
      vertex -32.2325 11.9145 0
      vertex -29.5399 14.6571 0
      vertex -28.8002 12.3806 0
    endloop
  endfacet
  facet normal 0 0 -1
    outer loop
      vertex -32 10 0
      vertex -28.8002 12.3806 0
      vertex -28.55 10 0
    endloop
  endfacet
  facet normal 0 0 -1
    outer loop
      vertex -32.2325 8.08547 0
      vertex -28.55 10 0
      vertex -28.8002 7.61941 0
    endloop
  endfacet
  facet normal 0 0 -1
    outer loop
      vertex -32.9164 6.28221 0
      vertex -28.8002 7.61941 0
      vertex -29.5399 5.34287 0
    endloop
  endfacet
  facet normal 0 0 -1
    outer loop
      vertex -34.0119 4.69502 0
      vertex -29.5399 5.34287 0
      vertex -30.7368 3.26986 0
    endloop
  endfacet
  facet normal 0 0 -1
    outer loop
      vertex -35.4555 3.41613 0
      vertex -30.7368 3.26986 0
      vertex -32.3385 1.49099 0
    endloop
  endfacet
  facet normal 0 0 -1
    outer loop
      vertex -37.1632 2.51987 0
      vertex -32.3385 1.49099 0
      vertex -34.275 0.084009 0
    endloop
  endfacet
  facet normal 0 0 -1
    outer loop
      vertex -40.9643 2.05833 0
      vertex -34.275 0.084009 0
      vertex -36.4618 -0.889597 0
    endloop
  endfacet
  facet normal 0 0 -1
    outer loop
      vertex -44.5445 3.41613 0
      vertex -36.4618 -0.889597 0
      vertex -38.8031 -1.38728 0
    endloop
  endfacet
  facet normal 0 0 -1
    outer loop
      vertex -51.1998 7.61941 0
      vertex -38.8031 -1.38728 0
      vertex -41.1969 -1.38728 0
    endloop
  endfacet
  facet normal 0 0 -1
    outer loop
      vertex -51.1998 7.61941 0
      vertex -41.1969 -1.38728 0
      vertex -43.5382 -0.889597 0
    endloop
  endfacet
  facet normal 0 0 -1
    outer loop
      vertex -51.1998 7.61941 0
      vertex -43.5382 -0.889597 0
      vertex -45.725 0.084009 0
    endloop
  endfacet
  facet normal 0 0 -1
    outer loop
      vertex -51.1998 7.61941 0
      vertex -45.725 0.084009 0
      vertex -47.6615 1.49099 0
    endloop
  endfacet
  facet normal 0 0 -1
    outer loop
      vertex -51.1998 7.61941 0
      vertex -47.6615 1.49099 0
      vertex -49.2632 3.26986 0
    endloop
  endfacet
  facet normal 0 0 -1
    outer loop
      vertex -51.1998 7.61941 0
      vertex -49.2632 3.26986 0
      vertex -50.4601 5.34287 0
    endloop
  endfacet
  facet normal 0 0 -1
    outer loop
      vertex -47.7675 8.08547 0
      vertex -51.1998 7.61941 0
      vertex -48 10 0
    endloop
  endfacet
  facet normal 0 0 -1
    outer loop
      vertex -47.0836 6.28221 0
      vertex -51.1998 7.61941 0
      vertex -47.7675 8.08547 0
    endloop
  endfacet
  facet normal 0 0 -1
    outer loop
      vertex -45.9881 4.69502 0
      vertex -51.1998 7.61941 0
      vertex -47.0836 6.28221 0
    endloop
  endfacet
  facet normal 0 0 -1
    outer loop
      vertex -37.1632 2.51987 0
      vertex -34.275 0.084009 0
      vertex -39.0357 2.05833 0
    endloop
  endfacet
  facet normal 0 0 -1
    outer loop
      vertex -42.8368 2.51987 0
      vertex -36.4618 -0.889597 0
      vertex -44.5445 3.41613 0
    endloop
  endfacet
  facet normal 0 0 -1
    outer loop
      vertex -51.1998 7.61941 0
      vertex -44.5445 3.41613 0
      vertex -38.8031 -1.38728 0
    endloop
  endfacet
  facet normal 0 0 -1
    outer loop
      vertex -40.9643 2.05833 0
      vertex -36.4618 -0.889597 0
      vertex -42.8368 2.51987 0
    endloop
  endfacet
  facet normal 0 0 -1
    outer loop
      vertex -39.0357 2.05833 0
      vertex -34.275 0.084009 0
      vertex -40.9643 2.05833 0
    endloop
  endfacet
  facet normal 0 0 -1
    outer loop
      vertex -44.5445 3.41613 0
      vertex -51.1998 7.61941 0
      vertex -45.9881 4.69502 0
    endloop
  endfacet
  facet normal 0 0 -1
    outer loop
      vertex -34.0119 4.69502 0
      vertex -30.7368 3.26986 0
      vertex -35.4555 3.41613 0
    endloop
  endfacet
  facet normal 0 0 -1
    outer loop
      vertex -35.4555 3.41613 0
      vertex -32.3385 1.49099 0
      vertex -37.1632 2.51987 0
    endloop
  endfacet
  facet normal 0 0 -1
    outer loop
      vertex -32.2325 11.9145 0
      vertex -28.8002 12.3806 0
      vertex -32 10 0
    endloop
  endfacet
  facet normal 0 0 -1
    outer loop
      vertex -32 10 0
      vertex -28.55 10 0
      vertex -32.2325 8.08547 0
    endloop
  endfacet
  facet normal 0 0 -1
    outer loop
      vertex -32.2325 8.08547 0
      vertex -28.8002 7.61941 0
      vertex -32.9164 6.28221 0
    endloop
  endfacet
  facet normal 0 0 -1
    outer loop
      vertex -35.4555 16.5839 0
      vertex -32.3385 18.509 0
      vertex -34.0119 15.305 0
    endloop
  endfacet
  facet normal 0 0 -1
    outer loop
      vertex -32.9164 6.28221 0
      vertex -29.5399 5.34287 0
      vertex -34.0119 4.69502 0
    endloop
  endfacet
  facet normal 0 0 -1
    outer loop
      vertex -40.9643 17.9417 0
      vertex -36.4618 20.8896 0
      vertex -39.0357 17.9417 0
    endloop
  endfacet
  facet normal 0 0 -1
    outer loop
      vertex -39.0357 17.9417 0
      vertex -34.275 19.916 0
      vertex -37.1632 17.4801 0
    endloop
  endfacet
  facet normal 0 0 -1
    outer loop
      vertex -44.5445 16.5839 0
      vertex -41.1969 21.3873 0
      vertex -42.8368 17.4801 0
    endloop
  endfacet
  facet normal 0 0 -1
    outer loop
      vertex -47.0836 13.7178 0
      vertex -43.5382 20.8896 0
      vertex -45.9881 15.305 0
    endloop
  endfacet
  facet normal 0 0 -1
    outer loop
      vertex -47.7675 11.9145 0
      vertex -51.1998 7.61941 0
      vertex -47.0836 13.7178 0
    endloop
  endfacet
  facet normal 0 0 -1
    outer loop
      vertex -51.1998 7.61941 0
      vertex -43.5382 20.8896 0
      vertex -47.0836 13.7178 0
    endloop
  endfacet
  facet normal 0 0 -1
    outer loop
      vertex -48 10 0
      vertex -51.1998 7.61941 0
      vertex -47.7675 11.9145 0
    endloop
  endfacet
  facet normal 0 0 -1
    outer loop
      vertex -45.9881 15.305 0
      vertex -41.1969 21.3873 0
      vertex -44.5445 16.5839 0
    endloop
  endfacet
  facet normal 0 0 -1
    outer loop
      vertex -42.8368 17.4801 0
      vertex -38.8031 21.3873 0
      vertex -40.9643 17.9417 0
    endloop
  endfacet
  facet normal 0 0 -1
    outer loop
      vertex -34.0119 15.305 0
      vertex -30.7368 16.7301 0
      vertex -32.9164 13.7178 0
    endloop
  endfacet
  facet normal 0 0 -1
    outer loop
      vertex -32.9164 13.7178 0
      vertex -29.5399 14.6571 0
      vertex -32.2325 11.9145 0
    endloop
  endfacet
  facet normal 0 0 -1
    outer loop
      vertex -37.1632 17.4801 0
      vertex -32.3385 18.509 0
      vertex -35.4555 16.5839 0
    endloop
  endfacet
  facet normal -0.994522 0.104528 0
    outer loop
      vertex -51.45 10 0
      vertex -51.45 10 0.6
      vertex -51.1998 12.3806 0
    endloop
  endfacet
  facet normal -0.994522 0.104528 0
    outer loop
      vertex -51.1998 12.3806 0
      vertex -51.45 10 0.6
      vertex -51.1998 12.3806 0.6
    endloop
  endfacet
  facet normal -0.994522 -0.104528 0
    outer loop
      vertex -51.45 10 0
      vertex -51.1998 7.61941 0
      vertex -51.45 10 0.6
    endloop
  endfacet
  facet normal -0.994522 -0.104528 0
    outer loop
      vertex -51.45 10 0.6
      vertex -51.1998 7.61941 0
      vertex -51.1998 7.61941 0.6
    endloop
  endfacet
  facet normal -0.951056 -0.309017 0
    outer loop
      vertex -51.1998 7.61941 0
      vertex -50.4601 5.34287 0
      vertex -51.1998 7.61941 0.6
    endloop
  endfacet
  facet normal -0.951056 -0.309017 0
    outer loop
      vertex -51.1998 7.61941 0.6
      vertex -50.4601 5.34287 0
      vertex -50.4601 5.34287 0.6
    endloop
  endfacet
  facet normal -0.866026 -0.5 0
    outer loop
      vertex -50.4601 5.34287 0
      vertex -49.2632 3.26986 0
      vertex -50.4601 5.34287 0.6
    endloop
  endfacet
  facet normal -0.866026 -0.5 0
    outer loop
      vertex -50.4601 5.34287 0.6
      vertex -49.2632 3.26986 0
      vertex -49.2632 3.26986 0.6
    endloop
  endfacet
  facet normal -0.743145 -0.669131 0
    outer loop
      vertex -49.2632 3.26986 0
      vertex -47.6615 1.49099 0
      vertex -49.2632 3.26986 0.6
    endloop
  endfacet
  facet normal -0.743145 -0.669131 0
    outer loop
      vertex -49.2632 3.26986 0.6
      vertex -47.6615 1.49099 0
      vertex -47.6615 1.49099 0.6
    endloop
  endfacet
  facet normal -0.587785 -0.809017 0
    outer loop
      vertex -47.6615 1.49099 0.6
      vertex -47.6615 1.49099 0
      vertex -45.725 0.084009 0
    endloop
  endfacet
  facet normal -0.587785 -0.809017 0
    outer loop
      vertex -45.725 0.084009 0.6
      vertex -47.6615 1.49099 0.6
      vertex -45.725 0.084009 0
    endloop
  endfacet
  facet normal -0.406737 -0.913545 0
    outer loop
      vertex -45.725 0.084009 0.6
      vertex -45.725 0.084009 0
      vertex -43.5382 -0.889597 0
    endloop
  endfacet
  facet normal -0.406737 -0.913545 0
    outer loop
      vertex -43.5382 -0.889597 0.6
      vertex -45.725 0.084009 0.6
      vertex -43.5382 -0.889597 0
    endloop
  endfacet
  facet normal -0.207912 -0.978148 0
    outer loop
      vertex -43.5382 -0.889597 0.6
      vertex -43.5382 -0.889597 0
      vertex -41.1969 -1.38728 0
    endloop
  endfacet
  facet normal -0.207912 -0.978148 0
    outer loop
      vertex -41.1969 -1.38728 0.6
      vertex -43.5382 -0.889597 0.6
      vertex -41.1969 -1.38728 0
    endloop
  endfacet
  facet normal 0 -1 0
    outer loop
      vertex -41.1969 -1.38728 0.6
      vertex -41.1969 -1.38728 0
      vertex -38.8031 -1.38728 0
    endloop
  endfacet
  facet normal 0 -1 0
    outer loop
      vertex -38.8031 -1.38728 0.6
      vertex -41.1969 -1.38728 0.6
      vertex -38.8031 -1.38728 0
    endloop
  endfacet
  facet normal 0.207912 -0.978148 0
    outer loop
      vertex -38.8031 -1.38728 0.6
      vertex -38.8031 -1.38728 0
      vertex -36.4618 -0.889597 0
    endloop
  endfacet
  facet normal 0.207912 -0.978148 0
    outer loop
      vertex -36.4618 -0.889597 0.6
      vertex -38.8031 -1.38728 0.6
      vertex -36.4618 -0.889597 0
    endloop
  endfacet
  facet normal 0.406737 -0.913545 0
    outer loop
      vertex -36.4618 -0.889597 0.6
      vertex -36.4618 -0.889597 0
      vertex -34.275 0.084009 0
    endloop
  endfacet
  facet normal 0.406737 -0.913545 0
    outer loop
      vertex -34.275 0.084009 0.6
      vertex -36.4618 -0.889597 0.6
      vertex -34.275 0.084009 0
    endloop
  endfacet
  facet normal 0.587785 -0.809017 0
    outer loop
      vertex -34.275 0.084009 0.6
      vertex -34.275 0.084009 0
      vertex -32.3385 1.49099 0
    endloop
  endfacet
  facet normal 0.587785 -0.809017 0
    outer loop
      vertex -32.3385 1.49099 0.6
      vertex -34.275 0.084009 0.6
      vertex -32.3385 1.49099 0
    endloop
  endfacet
  facet normal 0.743145 -0.669131 0
    outer loop
      vertex -32.3385 1.49099 0.6
      vertex -32.3385 1.49099 0
      vertex -30.7368 3.26986 0
    endloop
  endfacet
  facet normal 0.743145 -0.669131 0
    outer loop
      vertex -30.7368 3.26986 0.6
      vertex -32.3385 1.49099 0.6
      vertex -30.7368 3.26986 0
    endloop
  endfacet
  facet normal 0.866026 -0.5 0
    outer loop
      vertex -30.7368 3.26986 0.6
      vertex -30.7368 3.26986 0
      vertex -29.5399 5.34287 0
    endloop
  endfacet
  facet normal 0.866026 -0.5 0
    outer loop
      vertex -29.5399 5.34287 0.6
      vertex -30.7368 3.26986 0.6
      vertex -29.5399 5.34287 0
    endloop
  endfacet
  facet normal 0.951056 -0.309017 0
    outer loop
      vertex -29.5399 5.34287 0.6
      vertex -29.5399 5.34287 0
      vertex -28.8002 7.61941 0
    endloop
  endfacet
  facet normal 0.951056 -0.309017 0
    outer loop
      vertex -28.8002 7.61941 0.6
      vertex -29.5399 5.34287 0.6
      vertex -28.8002 7.61941 0
    endloop
  endfacet
  facet normal 0.994522 -0.104528 0
    outer loop
      vertex -28.8002 7.61941 0.6
      vertex -28.8002 7.61941 0
      vertex -28.55 10 0
    endloop
  endfacet
  facet normal 0.994522 -0.104528 0
    outer loop
      vertex -28.55 10 0.6
      vertex -28.8002 7.61941 0.6
      vertex -28.55 10 0
    endloop
  endfacet
  facet normal 0.994522 0.104528 0
    outer loop
      vertex -28.55 10 0
      vertex -28.8002 12.3806 0
      vertex -28.8002 12.3806 0.6
    endloop
  endfacet
  facet normal 0.994522 0.104528 0
    outer loop
      vertex -28.55 10 0.6
      vertex -28.55 10 0
      vertex -28.8002 12.3806 0.6
    endloop
  endfacet
  facet normal 0.951056 0.309017 0
    outer loop
      vertex -28.8002 12.3806 0
      vertex -29.5399 14.6571 0
      vertex -29.5399 14.6571 0.6
    endloop
  endfacet
  facet normal 0.951056 0.309017 0
    outer loop
      vertex -28.8002 12.3806 0.6
      vertex -28.8002 12.3806 0
      vertex -29.5399 14.6571 0.6
    endloop
  endfacet
  facet normal 0.866026 0.5 0
    outer loop
      vertex -29.5399 14.6571 0
      vertex -30.7368 16.7301 0
      vertex -30.7368 16.7301 0.6
    endloop
  endfacet
  facet normal 0.866026 0.5 0
    outer loop
      vertex -29.5399 14.6571 0.6
      vertex -29.5399 14.6571 0
      vertex -30.7368 16.7301 0.6
    endloop
  endfacet
  facet normal 0.743145 0.669131 0
    outer loop
      vertex -30.7368 16.7301 0
      vertex -32.3385 18.509 0
      vertex -32.3385 18.509 0.6
    endloop
  endfacet
  facet normal 0.743145 0.669131 0
    outer loop
      vertex -30.7368 16.7301 0.6
      vertex -30.7368 16.7301 0
      vertex -32.3385 18.509 0.6
    endloop
  endfacet
  facet normal 0.587785 0.809017 0
    outer loop
      vertex -34.275 19.916 0
      vertex -34.275 19.916 0.6
      vertex -32.3385 18.509 0
    endloop
  endfacet
  facet normal 0.587785 0.809017 0
    outer loop
      vertex -32.3385 18.509 0
      vertex -34.275 19.916 0.6
      vertex -32.3385 18.509 0.6
    endloop
  endfacet
  facet normal 0.406737 0.913545 0
    outer loop
      vertex -36.4618 20.8896 0
      vertex -36.4618 20.8896 0.6
      vertex -34.275 19.916 0
    endloop
  endfacet
  facet normal 0.406737 0.913545 0
    outer loop
      vertex -34.275 19.916 0
      vertex -36.4618 20.8896 0.6
      vertex -34.275 19.916 0.6
    endloop
  endfacet
  facet normal 0.207912 0.978148 0
    outer loop
      vertex -38.8031 21.3873 0
      vertex -38.8031 21.3873 0.6
      vertex -36.4618 20.8896 0
    endloop
  endfacet
  facet normal 0.207912 0.978148 0
    outer loop
      vertex -36.4618 20.8896 0
      vertex -38.8031 21.3873 0.6
      vertex -36.4618 20.8896 0.6
    endloop
  endfacet
  facet normal 0 1 0
    outer loop
      vertex -41.1969 21.3873 0
      vertex -41.1969 21.3873 0.6
      vertex -38.8031 21.3873 0
    endloop
  endfacet
  facet normal 0 1 0
    outer loop
      vertex -38.8031 21.3873 0
      vertex -41.1969 21.3873 0.6
      vertex -38.8031 21.3873 0.6
    endloop
  endfacet
  facet normal -0.207912 0.978148 0
    outer loop
      vertex -43.5382 20.8896 0
      vertex -43.5382 20.8896 0.6
      vertex -41.1969 21.3873 0
    endloop
  endfacet
  facet normal -0.207912 0.978148 0
    outer loop
      vertex -41.1969 21.3873 0
      vertex -43.5382 20.8896 0.6
      vertex -41.1969 21.3873 0.6
    endloop
  endfacet
  facet normal -0.406737 0.913545 0
    outer loop
      vertex -45.725 19.916 0
      vertex -45.725 19.916 0.6
      vertex -43.5382 20.8896 0
    endloop
  endfacet
  facet normal -0.406737 0.913545 0
    outer loop
      vertex -43.5382 20.8896 0
      vertex -45.725 19.916 0.6
      vertex -43.5382 20.8896 0.6
    endloop
  endfacet
  facet normal -0.587785 0.809017 0
    outer loop
      vertex -47.6615 18.509 0
      vertex -47.6615 18.509 0.6
      vertex -45.725 19.916 0
    endloop
  endfacet
  facet normal -0.587785 0.809017 0
    outer loop
      vertex -45.725 19.916 0
      vertex -47.6615 18.509 0.6
      vertex -45.725 19.916 0.6
    endloop
  endfacet
  facet normal -0.743145 0.669131 0
    outer loop
      vertex -49.2632 16.7301 0
      vertex -49.2632 16.7301 0.6
      vertex -47.6615 18.509 0
    endloop
  endfacet
  facet normal -0.743145 0.669131 0
    outer loop
      vertex -47.6615 18.509 0
      vertex -49.2632 16.7301 0.6
      vertex -47.6615 18.509 0.6
    endloop
  endfacet
  facet normal -0.866026 0.5 0
    outer loop
      vertex -50.4601 14.6571 0
      vertex -50.4601 14.6571 0.6
      vertex -49.2632 16.7301 0
    endloop
  endfacet
  facet normal -0.866026 0.5 0
    outer loop
      vertex -49.2632 16.7301 0
      vertex -50.4601 14.6571 0.6
      vertex -49.2632 16.7301 0.6
    endloop
  endfacet
  facet normal -0.951056 0.309017 0
    outer loop
      vertex -51.1998 12.3806 0
      vertex -51.1998 12.3806 0.6
      vertex -50.4601 14.6571 0
    endloop
  endfacet
  facet normal -0.951056 0.309017 0
    outer loop
      vertex -50.4601 14.6571 0
      vertex -51.1998 12.3806 0.6
      vertex -50.4601 14.6571 0.6
    endloop
  endfacet
  facet normal 0.992709 -0.120536 0
    outer loop
      vertex -47.7675 11.9145 0
      vertex -47.7675 11.9145 0.6
      vertex -48 10 0.6
    endloop
  endfacet
  facet normal 0.992709 -0.120536 0
    outer loop
      vertex -48 10 0
      vertex -47.7675 11.9145 0
      vertex -48 10 0.6
    endloop
  endfacet
  facet normal 0.992709 0.120536 0
    outer loop
      vertex -48 10 0.6
      vertex -47.7675 8.08547 0.6
      vertex -47.7675 8.08547 0
    endloop
  endfacet
  facet normal 0.992709 0.120536 0
    outer loop
      vertex -48 10 0
      vertex -48 10 0.6
      vertex -47.7675 8.08547 0
    endloop
  endfacet
  facet normal 0.935016 -0.354605 0
    outer loop
      vertex -47.0836 13.7178 0
      vertex -47.0836 13.7178 0.6
      vertex -47.7675 11.9145 0.6
    endloop
  endfacet
  facet normal 0.935016 -0.354605 0
    outer loop
      vertex -47.7675 11.9145 0
      vertex -47.0836 13.7178 0
      vertex -47.7675 11.9145 0.6
    endloop
  endfacet
  facet normal 0.822984 -0.568065 0
    outer loop
      vertex -45.9881 15.305 0
      vertex -45.9881 15.305 0.6
      vertex -47.0836 13.7178 0.6
    endloop
  endfacet
  facet normal 0.822984 -0.568065 0
    outer loop
      vertex -47.0836 13.7178 0
      vertex -45.9881 15.305 0
      vertex -47.0836 13.7178 0.6
    endloop
  endfacet
  facet normal 0.663123 -0.748511 0
    outer loop
      vertex -44.5445 16.5839 0
      vertex -44.5445 16.5839 0.6
      vertex -45.9881 15.305 0.6
    endloop
  endfacet
  facet normal 0.663123 -0.748511 0
    outer loop
      vertex -45.9881 15.305 0
      vertex -44.5445 16.5839 0
      vertex -45.9881 15.305 0.6
    endloop
  endfacet
  facet normal 0.464723 -0.885456 0
    outer loop
      vertex -42.8368 17.4801 0
      vertex -42.8368 17.4801 0.6
      vertex -44.5445 16.5839 0.6
    endloop
  endfacet
  facet normal 0.464723 -0.885456 0
    outer loop
      vertex -44.5445 16.5839 0
      vertex -42.8368 17.4801 0
      vertex -44.5445 16.5839 0.6
    endloop
  endfacet
  facet normal 0.239316 -0.970942 0
    outer loop
      vertex -40.9643 17.9417 0
      vertex -40.9643 17.9417 0.6
      vertex -42.8368 17.4801 0.6
    endloop
  endfacet
  facet normal 0.239316 -0.970942 0
    outer loop
      vertex -42.8368 17.4801 0
      vertex -40.9643 17.9417 0
      vertex -42.8368 17.4801 0.6
    endloop
  endfacet
  facet normal 0 -1 0
    outer loop
      vertex -39.0357 17.9417 0
      vertex -39.0357 17.9417 0.6
      vertex -40.9643 17.9417 0.6
    endloop
  endfacet
  facet normal 0 -1 0
    outer loop
      vertex -40.9643 17.9417 0
      vertex -39.0357 17.9417 0
      vertex -40.9643 17.9417 0.6
    endloop
  endfacet
  facet normal -0.239316 -0.970942 0
    outer loop
      vertex -37.1632 17.4801 0
      vertex -37.1632 17.4801 0.6
      vertex -39.0357 17.9417 0.6
    endloop
  endfacet
  facet normal -0.239316 -0.970942 0
    outer loop
      vertex -39.0357 17.9417 0
      vertex -37.1632 17.4801 0
      vertex -39.0357 17.9417 0.6
    endloop
  endfacet
  facet normal -0.464723 -0.885456 0
    outer loop
      vertex -35.4555 16.5839 0
      vertex -35.4555 16.5839 0.6
      vertex -37.1632 17.4801 0.6
    endloop
  endfacet
  facet normal -0.464723 -0.885456 0
    outer loop
      vertex -37.1632 17.4801 0
      vertex -35.4555 16.5839 0
      vertex -37.1632 17.4801 0.6
    endloop
  endfacet
  facet normal -0.663123 -0.748511 0
    outer loop
      vertex -34.0119 15.305 0
      vertex -34.0119 15.305 0.6
      vertex -35.4555 16.5839 0.6
    endloop
  endfacet
  facet normal -0.663123 -0.748511 0
    outer loop
      vertex -35.4555 16.5839 0
      vertex -34.0119 15.305 0
      vertex -35.4555 16.5839 0.6
    endloop
  endfacet
  facet normal -0.822984 -0.568065 0
    outer loop
      vertex -32.9164 13.7178 0.6
      vertex -34.0119 15.305 0.6
      vertex -32.9164 13.7178 0
    endloop
  endfacet
  facet normal -0.822984 -0.568065 0
    outer loop
      vertex -32.9164 13.7178 0
      vertex -34.0119 15.305 0.6
      vertex -34.0119 15.305 0
    endloop
  endfacet
  facet normal -0.935016 -0.354605 0
    outer loop
      vertex -32.2325 11.9145 0.6
      vertex -32.9164 13.7178 0.6
      vertex -32.2325 11.9145 0
    endloop
  endfacet
  facet normal -0.935016 -0.354605 0
    outer loop
      vertex -32.2325 11.9145 0
      vertex -32.9164 13.7178 0.6
      vertex -32.9164 13.7178 0
    endloop
  endfacet
  facet normal -0.992709 -0.120536 0
    outer loop
      vertex -32 10 0.6
      vertex -32.2325 11.9145 0.6
      vertex -32 10 0
    endloop
  endfacet
  facet normal -0.992709 -0.120536 0
    outer loop
      vertex -32 10 0
      vertex -32.2325 11.9145 0.6
      vertex -32.2325 11.9145 0
    endloop
  endfacet
  facet normal -0.992709 0.120536 0
    outer loop
      vertex -32 10 0.6
      vertex -32 10 0
      vertex -32.2325 8.08547 0.6
    endloop
  endfacet
  facet normal -0.992709 0.120536 0
    outer loop
      vertex -32.2325 8.08547 0.6
      vertex -32 10 0
      vertex -32.2325 8.08547 0
    endloop
  endfacet
  facet normal -0.935016 0.354605 0
    outer loop
      vertex -32.2325 8.08547 0.6
      vertex -32.2325 8.08547 0
      vertex -32.9164 6.28221 0.6
    endloop
  endfacet
  facet normal -0.935016 0.354605 0
    outer loop
      vertex -32.9164 6.28221 0.6
      vertex -32.2325 8.08547 0
      vertex -32.9164 6.28221 0
    endloop
  endfacet
  facet normal -0.822984 0.568065 0
    outer loop
      vertex -32.9164 6.28221 0.6
      vertex -32.9164 6.28221 0
      vertex -34.0119 4.69502 0.6
    endloop
  endfacet
  facet normal -0.822984 0.568065 0
    outer loop
      vertex -34.0119 4.69502 0.6
      vertex -32.9164 6.28221 0
      vertex -34.0119 4.69502 0
    endloop
  endfacet
  facet normal -0.663123 0.748511 0
    outer loop
      vertex -34.0119 4.69502 0.6
      vertex -34.0119 4.69502 0
      vertex -35.4555 3.41613 0.6
    endloop
  endfacet
  facet normal -0.663123 0.748511 0
    outer loop
      vertex -35.4555 3.41613 0.6
      vertex -34.0119 4.69502 0
      vertex -35.4555 3.41613 0
    endloop
  endfacet
  facet normal -0.464723 0.885456 0
    outer loop
      vertex -35.4555 3.41613 0.6
      vertex -35.4555 3.41613 0
      vertex -37.1632 2.51987 0.6
    endloop
  endfacet
  facet normal -0.464723 0.885456 0
    outer loop
      vertex -37.1632 2.51987 0.6
      vertex -35.4555 3.41613 0
      vertex -37.1632 2.51987 0
    endloop
  endfacet
  facet normal -0.239316 0.970942 0
    outer loop
      vertex -37.1632 2.51987 0.6
      vertex -37.1632 2.51987 0
      vertex -39.0357 2.05833 0.6
    endloop
  endfacet
  facet normal -0.239316 0.970942 0
    outer loop
      vertex -39.0357 2.05833 0.6
      vertex -37.1632 2.51987 0
      vertex -39.0357 2.05833 0
    endloop
  endfacet
  facet normal 0 1 0
    outer loop
      vertex -39.0357 2.05833 0.6
      vertex -39.0357 2.05833 0
      vertex -40.9643 2.05833 0.6
    endloop
  endfacet
  facet normal 0 1 0
    outer loop
      vertex -40.9643 2.05833 0.6
      vertex -39.0357 2.05833 0
      vertex -40.9643 2.05833 0
    endloop
  endfacet
  facet normal 0.239316 0.970942 0
    outer loop
      vertex -40.9643 2.05833 0.6
      vertex -40.9643 2.05833 0
      vertex -42.8368 2.51987 0.6
    endloop
  endfacet
  facet normal 0.239316 0.970942 0
    outer loop
      vertex -42.8368 2.51987 0.6
      vertex -40.9643 2.05833 0
      vertex -42.8368 2.51987 0
    endloop
  endfacet
  facet normal 0.464723 0.885456 0
    outer loop
      vertex -42.8368 2.51987 0.6
      vertex -42.8368 2.51987 0
      vertex -44.5445 3.41613 0.6
    endloop
  endfacet
  facet normal 0.464723 0.885456 0
    outer loop
      vertex -44.5445 3.41613 0.6
      vertex -42.8368 2.51987 0
      vertex -44.5445 3.41613 0
    endloop
  endfacet
  facet normal 0.663123 0.748511 0
    outer loop
      vertex -44.5445 3.41613 0.6
      vertex -44.5445 3.41613 0
      vertex -45.9881 4.69502 0.6
    endloop
  endfacet
  facet normal 0.663123 0.748511 0
    outer loop
      vertex -45.9881 4.69502 0.6
      vertex -44.5445 3.41613 0
      vertex -45.9881 4.69502 0
    endloop
  endfacet
  facet normal 0.822984 0.568065 0
    outer loop
      vertex -47.0836 6.28221 0.6
      vertex -45.9881 4.69502 0.6
      vertex -45.9881 4.69502 0
    endloop
  endfacet
  facet normal 0.822984 0.568065 0
    outer loop
      vertex -47.0836 6.28221 0
      vertex -47.0836 6.28221 0.6
      vertex -45.9881 4.69502 0
    endloop
  endfacet
  facet normal 0.935016 0.354605 0
    outer loop
      vertex -47.7675 8.08547 0.6
      vertex -47.0836 6.28221 0.6
      vertex -47.0836 6.28221 0
    endloop
  endfacet
  facet normal 0.935016 0.354605 0
    outer loop
      vertex -47.7675 8.08547 0
      vertex -47.7675 8.08547 0.6
      vertex -47.0836 6.28221 0
    endloop
  endfacet
  facet normal 0 0 1
    outer loop
      vertex -51.1998 12.3806 0.6
      vertex -51.45 10 0.6
      vertex -51.1998 7.61941 0.6
    endloop
  endfacet
  facet normal 0 0 1
    outer loop
      vertex -49.2632 3.26986 0.6
      vertex -51.1998 12.3806 0.6
      vertex -50.4601 5.34287 0.6
    endloop
  endfacet
  facet normal 0 0 1
    outer loop
      vertex -50.4601 5.34287 0.6
      vertex -51.1998 12.3806 0.6
      vertex -51.1998 7.61941 0.6
    endloop
  endfacet
  facet normal 0 0 1
    outer loop
      vertex -47.6615 1.49099 0.6
      vertex -51.1998 12.3806 0.6
      vertex -49.2632 3.26986 0.6
    endloop
  endfacet
  facet normal 0 0 1
    outer loop
      vertex -45.725 0.084009 0.6
      vertex -51.1998 12.3806 0.6
      vertex -47.6615 1.49099 0.6
    endloop
  endfacet
  facet normal 0 0 1
    outer loop
      vertex -43.5382 -0.889597 0.6
      vertex -51.1998 12.3806 0.6
      vertex -45.725 0.084009 0.6
    endloop
  endfacet
  facet normal 0 0 1
    outer loop
      vertex -47.0836 6.28221 0.6
      vertex -51.1998 12.3806 0.6
      vertex -43.5382 -0.889597 0.6
    endloop
  endfacet
  facet normal 0 0 1
    outer loop
      vertex -47.7675 11.9145 0.6
      vertex -47.0836 13.7178 0.6
      vertex -51.1998 12.3806 0.6
    endloop
  endfacet
  facet normal 0 0 1
    outer loop
      vertex -47.0836 13.7178 0.6
      vertex -45.9881 15.305 0.6
      vertex -51.1998 12.3806 0.6
    endloop
  endfacet
  facet normal 0 0 1
    outer loop
      vertex -32.2325 11.9145 0.6
      vertex -32 10 0.6
      vertex -28.55 10 0.6
    endloop
  endfacet
  facet normal 0 0 1
    outer loop
      vertex -39.0357 17.9417 0.6
      vertex -37.1632 17.4801 0.6
      vertex -34.275 19.916 0.6
    endloop
  endfacet
  facet normal 0 0 1
    outer loop
      vertex -42.8368 17.4801 0.6
      vertex -40.9643 17.9417 0.6
      vertex -36.4618 20.8896 0.6
    endloop
  endfacet
  facet normal 0 0 1
    outer loop
      vertex -41.1969 21.3873 0.6
      vertex -51.1998 12.3806 0.6
      vertex -38.8031 21.3873 0.6
    endloop
  endfacet
  facet normal 0 0 1
    outer loop
      vertex -43.5382 20.8896 0.6
      vertex -51.1998 12.3806 0.6
      vertex -41.1969 21.3873 0.6
    endloop
  endfacet
  facet normal 0 0 1
    outer loop
      vertex -45.725 19.916 0.6
      vertex -51.1998 12.3806 0.6
      vertex -43.5382 20.8896 0.6
    endloop
  endfacet
  facet normal 0 0 1
    outer loop
      vertex -47.6615 18.509 0.6
      vertex -51.1998 12.3806 0.6
      vertex -45.725 19.916 0.6
    endloop
  endfacet
  facet normal 0 0 1
    outer loop
      vertex -49.2632 16.7301 0.6
      vertex -51.1998 12.3806 0.6
      vertex -47.6615 18.509 0.6
    endloop
  endfacet
  facet normal 0 0 1
    outer loop
      vertex -50.4601 14.6571 0.6
      vertex -51.1998 12.3806 0.6
      vertex -49.2632 16.7301 0.6
    endloop
  endfacet
  facet normal 0 0 1
    outer loop
      vertex -37.1632 2.51987 0.6
      vertex -39.0357 2.05833 0.6
      vertex -34.275 0.084009 0.6
    endloop
  endfacet
  facet normal 0 0 1
    outer loop
      vertex -32.2325 8.08547 0.6
      vertex -32.9164 6.28221 0.6
      vertex -29.5399 5.34287 0.6
    endloop
  endfacet
  facet normal 0 0 1
    outer loop
      vertex -34.0119 15.305 0.6
      vertex -32.9164 13.7178 0.6
      vertex -29.5399 14.6571 0.6
    endloop
  endfacet
  facet normal 0 0 1
    outer loop
      vertex -37.1632 17.4801 0.6
      vertex -35.4555 16.5839 0.6
      vertex -32.3385 18.509 0.6
    endloop
  endfacet
  facet normal 0 0 1
    outer loop
      vertex -38.8031 21.3873 0.6
      vertex -44.5445 16.5839 0.6
      vertex -36.4618 20.8896 0.6
    endloop
  endfacet
  facet normal 0 0 1
    outer loop
      vertex -38.8031 21.3873 0.6
      vertex -51.1998 12.3806 0.6
      vertex -44.5445 16.5839 0.6
    endloop
  endfacet
  facet normal 0 0 1
    outer loop
      vertex -44.5445 16.5839 0.6
      vertex -42.8368 17.4801 0.6
      vertex -36.4618 20.8896 0.6
    endloop
  endfacet
  facet normal 0 0 1
    outer loop
      vertex -36.4618 20.8896 0.6
      vertex -40.9643 17.9417 0.6
      vertex -34.275 19.916 0.6
    endloop
  endfacet
  facet normal 0 0 1
    outer loop
      vertex -40.9643 17.9417 0.6
      vertex -39.0357 17.9417 0.6
      vertex -34.275 19.916 0.6
    endloop
  endfacet
  facet normal 0 0 1
    outer loop
      vertex -34.275 19.916 0.6
      vertex -37.1632 17.4801 0.6
      vertex -32.3385 18.509 0.6
    endloop
  endfacet
  facet normal 0 0 1
    outer loop
      vertex -45.9881 15.305 0.6
      vertex -44.5445 16.5839 0.6
      vertex -51.1998 12.3806 0.6
    endloop
  endfacet
  facet normal 0 0 1
    outer loop
      vertex -32.3385 18.509 0.6
      vertex -35.4555 16.5839 0.6
      vertex -30.7368 16.7301 0.6
    endloop
  endfacet
  facet normal 0 0 1
    outer loop
      vertex -30.7368 16.7301 0.6
      vertex -34.0119 15.305 0.6
      vertex -29.5399 14.6571 0.6
    endloop
  endfacet
  facet normal 0 0 1
    outer loop
      vertex -29.5399 14.6571 0.6
      vertex -32.9164 13.7178 0.6
      vertex -28.8002 12.3806 0.6
    endloop
  endfacet
  facet normal 0 0 1
    outer loop
      vertex -35.4555 16.5839 0.6
      vertex -34.0119 15.305 0.6
      vertex -30.7368 16.7301 0.6
    endloop
  endfacet
  facet normal 0 0 1
    outer loop
      vertex -28.8002 12.3806 0.6
      vertex -32.2325 11.9145 0.6
      vertex -28.55 10 0.6
    endloop
  endfacet
  facet normal 0 0 1
    outer loop
      vertex -28.55 10 0.6
      vertex -32 10 0.6
      vertex -28.8002 7.61941 0.6
    endloop
  endfacet
  facet normal 0 0 1
    outer loop
      vertex -28.8002 7.61941 0.6
      vertex -32.2325 8.08547 0.6
      vertex -29.5399 5.34287 0.6
    endloop
  endfacet
  facet normal 0 0 1
    outer loop
      vertex -32.9164 13.7178 0.6
      vertex -32.2325 11.9145 0.6
      vertex -28.8002 12.3806 0.6
    endloop
  endfacet
  facet normal 0 0 1
    outer loop
      vertex -29.5399 5.34287 0.6
      vertex -32.9164 6.28221 0.6
      vertex -30.7368 3.26986 0.6
    endloop
  endfacet
  facet normal 0 0 1
    outer loop
      vertex -30.7368 3.26986 0.6
      vertex -34.0119 4.69502 0.6
      vertex -32.3385 1.49099 0.6
    endloop
  endfacet
  facet normal 0 0 1
    outer loop
      vertex -40.9643 2.05833 0.6
      vertex -42.8368 2.51987 0.6
      vertex -38.8031 -1.38728 0.6
    endloop
  endfacet
  facet normal 0 0 1
    outer loop
      vertex -34.0119 4.69502 0.6
      vertex -35.4555 3.41613 0.6
      vertex -32.3385 1.49099 0.6
    endloop
  endfacet
  facet normal 0 0 1
    outer loop
      vertex -32 10 0.6
      vertex -32.2325 8.08547 0.6
      vertex -28.8002 7.61941 0.6
    endloop
  endfacet
  facet normal 0 0 1
    outer loop
      vertex -32.3385 1.49099 0.6
      vertex -37.1632 2.51987 0.6
      vertex -34.275 0.084009 0.6
    endloop
  endfacet
  facet normal 0 0 1
    outer loop
      vertex -34.275 0.084009 0.6
      vertex -39.0357 2.05833 0.6
      vertex -36.4618 -0.889597 0.6
    endloop
  endfacet
  facet normal 0 0 1
    outer loop
      vertex -36.4618 -0.889597 0.6
      vertex -40.9643 2.05833 0.6
      vertex -38.8031 -1.38728 0.6
    endloop
  endfacet
  facet normal 0 0 1
    outer loop
      vertex -32.9164 6.28221 0.6
      vertex -34.0119 4.69502 0.6
      vertex -30.7368 3.26986 0.6
    endloop
  endfacet
  facet normal 0 0 1
    outer loop
      vertex -38.8031 -1.38728 0.6
      vertex -42.8368 2.51987 0.6
      vertex -41.1969 -1.38728 0.6
    endloop
  endfacet
  facet normal 0 0 1
    outer loop
      vertex -41.1969 -1.38728 0.6
      vertex -45.9881 4.69502 0.6
      vertex -43.5382 -0.889597 0.6
    endloop
  endfacet
  facet normal 0 0 1
    outer loop
      vertex -42.8368 2.51987 0.6
      vertex -44.5445 3.41613 0.6
      vertex -41.1969 -1.38728 0.6
    endloop
  endfacet
  facet normal 0 0 1
    outer loop
      vertex -45.9881 4.69502 0.6
      vertex -47.0836 6.28221 0.6
      vertex -43.5382 -0.889597 0.6
    endloop
  endfacet
  facet normal 0 0 1
    outer loop
      vertex -47.7675 8.08547 0.6
      vertex -48 10 0.6
      vertex -51.1998 12.3806 0.6
    endloop
  endfacet
  facet normal 0 0 1
    outer loop
      vertex -44.5445 3.41613 0.6
      vertex -45.9881 4.69502 0.6
      vertex -41.1969 -1.38728 0.6
    endloop
  endfacet
  facet normal 0 0 1
    outer loop
      vertex -47.0836 6.28221 0.6
      vertex -47.7675 8.08547 0.6
      vertex -51.1998 12.3806 0.6
    endloop
  endfacet
  facet normal 0 0 1
    outer loop
      vertex -35.4555 3.41613 0.6
      vertex -37.1632 2.51987 0.6
      vertex -32.3385 1.49099 0.6
    endloop
  endfacet
  facet normal 0 0 1
    outer loop
      vertex -39.0357 2.05833 0.6
      vertex -40.9643 2.05833 0.6
      vertex -36.4618 -0.889597 0.6
    endloop
  endfacet
  facet normal 0 0 1
    outer loop
      vertex -48 10 0.6
      vertex -47.7675 11.9145 0.6
      vertex -51.1998 12.3806 0.6
    endloop
  endfacet
endsolid OpenSCAD_Model
